# xmcd
#
# Track frame offsets:
#       150
#       14070
#       25380
#       37912
#       56112
#       72202
#       86887
#       98670
#       111320
#       124297
#       141402
#       156262
#
# Disc length: 2307 seconds
#
# Revision: 1
# Processed by: cddbd v1.5.1PL0 Copyright (c) Steve Scherf et al.
# Submitted via: MusiCat 1.1
#
DISCID=ae09010c
DTITLE=Valsas Brasileiras Instrumentais Vol. 1 - Valsas Brasileiras Instrument
DTITLE=ais Vol 1
DYEAR=1900
DGENRE=
TTITLE0=Saudades de matão
TTITLE1=E o destino desfolhou
TTITLE2=Saudades da minha mãe
TTITLE3=Abismo de rosas
TTITLE4=Club XV
TTITLE5=Sensível
TTITLE6=Branca
TTITLE7=Chão de estrelas
TTITLE8=Elair
TTITLE9=Gotas de ouro
TTITLE10=Lágrimas
TTITLE11=Rosa
EXTD=\n\n
EXTT0=
EXTT1=
EXTT2=
EXTT3=
EXTT4=
EXTT5=
EXTT6=
EXTT7=
EXTT8=
EXTT9=
EXTT10=
EXTT11=
PLAYORDER=
